<?xml version="1.0" standalone="no"?>
<!DOCTYPE svg PUBLIC "-//W3C//DTD SVG 20010904//EN"
 "http://www.w3.org/TR/2001/REC-SVG-20010904/DTD/svg10.dtd">
<svg version="1.0" xmlns="http://www.w3.org/2000/svg"
 width="331.000000pt" height="331.000000pt" viewBox="0 0 331.000000 331.000000"
 preserveAspectRatio="xMidYMid meet">
<metadata>
Created by potrace 1.14, written by Peter Selinger 2001-2017
</metadata>
<g transform="translate(0.000000,331.000000) scale(0.100000,-0.100000)"
fill="#000000" stroke="none">
<path d="M1558 3295 c-2 -1 -30 -6 -63 -9 -82 -9 -120 -15 -190 -32 -33 -8
-70 -17 -82 -20 -12 -2 -59 -18 -105 -35 -400 -147 -720 -430 -910 -804 -32
-63 -87 -193 -93 -220 -1 -5 -5 -17 -8 -25 -15 -35 -57 -228 -64 -294 -13
-121 -8 -372 11 -476 104 -587 502 -1066 1055 -1270 195 -71 369 -99 596 -95
161 3 188 6 280 25 28 6 63 13 78 16 64 12 238 76 324 118 190 93 308 178 459
331 215 218 362 487 430 785 22 95 24 128 24 356 0 282 -8 347 -66 522 -134
404 -416 738 -794 939 -69 36 -212 97 -265 113 -121 34 -157 42 -300 65 -41 7
-311 15 -317 10z"/>
</g>
</svg>
